<svg xmlns="http://www.w3.org/2000/svg" viewBox="0 0 35.05 32.94"><path d="M16.3,7.77a.69.69,0,1,1,0-1A.7.7,0,0,1,16.3,7.77Zm3-1.2a.87.87,0,0,0-1.24,0,.88.88,0,1,0,1.24,0Zm7,10.61a.69.69,0,0,0,1,.94.68.68,0,0,0,0-1A.69.69,0,0,0,26.28,17.18Zm-.22-3a.87.87,0,0,0,0,1.24.88.88,0,1,0,1.2-1.28A.88.88,0,0,0,26.06,14.13ZM8.77,15.76a.69.69,0,1,0-1-.95.69.69,0,0,0,1,.95Zm.22,3a.88.88,0,0,0,0-1.25.89.89,0,0,0-1.25,0,.88.88,0,0,0,0,1.24A.87.87,0,0,0,9,18.81Zm9.8,7.34a.69.69,0,0,0,1,0,.68.68,0,0,0,0-1,.69.69,0,0,0-.95,1Zm-3,.22A.88.88,0,0,0,17,25.09a.88.88,0,1,0-1.21,1.28Zm-2.34-16a.54.54,0,1,0,.37.67A.54.54,0,0,0,13.4,10.41Zm2-1.19a.68.68,0,1,0,.46.85A.68.68,0,0,0,15.37,9.22ZM23.61,14a.53.53,0,0,0,.36.67.54.54,0,0,0,.31-1A.54.54,0,0,0,23.61,14Zm-1.19-2a.68.68,0,1,0,1.31.38.67.67,0,0,0-.46-.84A.68.68,0,0,0,22.42,12Zm-11,7a.53.53,0,0,0-.37-.66.52.52,0,0,0-.66.36.53.53,0,0,0,.36.67A.54.54,0,0,0,11.45,19Zm1.19,2a.69.69,0,1,0-.85.46A.68.68,0,0,0,12.64,20.94Zm9,1.59a.54.54,0,1,0-.36-.67A.53.53,0,0,0,21.65,22.53Zm-2,1.19a.68.68,0,1,0-.47-.85A.68.68,0,0,0,19.69,23.72Zm-7.45-8.35a.48.48,0,0,0-.19.64.47.47,0,0,0,.83-.45A.47.47,0,0,0,12.24,15.37Zm.43-1.59a.54.54,0,1,0,.73.22A.54.54,0,0,0,12.67,13.78Zm6.65-1.69a.48.48,0,0,0,.64.19.47.47,0,0,0-.44-.84A.49.49,0,0,0,19.32,12.09Zm-1.59-.43a.54.54,0,0,0,.73.22.54.54,0,0,0-.51-1A.54.54,0,0,0,17.73,11.66Zm-2,9.18a.49.49,0,0,0-.64-.19.47.47,0,0,0,.44.84A.49.49,0,0,0,15.74,20.84Zm1.59.43a.54.54,0,0,0-1,.51.54.54,0,0,0,1-.51Zm5.49-3.71a.47.47,0,0,0-.45-.83.47.47,0,1,0,.45.83Zm-.44,1.59a.54.54,0,1,0-.72-.22A.54.54,0,0,0,22.38,19.15ZM26.36,3a1,1,0,0,0-.75-1.15,1,1,0,0,0-1.15.74,1,1,0,0,0,.75,1.16A1,1,0,0,0,26.36,3Zm3.48,2.49a1.18,1.18,0,1,0-1.35,1A1.18,1.18,0,0,0,29.84,5.51Zm2.8,3.23a1.47,1.47,0,0,0-2.93-.31,1.47,1.47,0,1,0,2.93.31ZM25.21,29.17a1,1,0,1,0,1.15.75A1,1,0,0,0,25.21,29.17Zm3.28-2.72a1.18,1.18,0,1,0,.37,2.33,1.18,1.18,0,1,0-.37-2.33ZM31,22.89a1.47,1.47,0,1,0,1.62,1.31A1.48,1.48,0,0,0,31,22.89ZM9.85,3.77A1,1,0,1,0,8.69,3,1,1,0,0,0,9.85,3.77ZM6.57,6.49A1.18,1.18,0,1,0,6.2,4.16a1.16,1.16,0,0,0-1,1.35A1.18,1.18,0,0,0,6.57,6.49ZM4,10.05A1.47,1.47,0,1,0,2.41,8.74,1.47,1.47,0,0,0,4,10.05ZM8.69,29.92a1,1,0,1,0,1.91.4,1,1,0,0,0-1.91-.4ZM5.22,27.43a1.18,1.18,0,1,0,2.33.37,1.18,1.18,0,0,0-2.33-.37ZM2.42,24.2a1.45,1.45,0,0,0,1.3,1.61A1.47,1.47,0,1,0,4,22.89,1.46,1.46,0,0,0,2.42,24.2ZM19.7,4.1a.76.76,0,0,0-1.49.29.77.77,0,0,0,.9.6A.75.75,0,0,0,19.7,4.1ZM23,4.8a.92.92,0,1,0-.66,1.12A.92.92,0,0,0,23,4.8Zm3,1.46a1.15,1.15,0,1,0-.75,1.43A1.15,1.15,0,0,0,26,6.26ZM27,23.2a.76.76,0,1,0,1.06.18A.77.77,0,0,0,27,23.2Zm1.51-3a.92.92,0,1,0,1,1.55.93.93,0,0,0,.28-1.27A.91.91,0,0,0,28.47,20.24Zm.72-3.34a1.15,1.15,0,1,0,1.56.44A1.15,1.15,0,0,0,29.19,16.9ZM8.09,9.74A.76.76,0,1,0,7,9.56.77.77,0,0,0,8.09,9.74Zm-1.51,3a.92.92,0,0,0,.29-1.27.91.91,0,0,0-1.27-.28.92.92,0,1,0,1,1.55ZM5.86,16A1.15,1.15,0,1,0,4.3,15.6,1.14,1.14,0,0,0,5.86,16Zm9.49,12.8a.76.76,0,1,0,1.49-.3.76.76,0,0,0-1.49.3Zm-3.26-.71a.92.92,0,1,0,1.79-.45A.94.94,0,0,0,12.75,27,.93.93,0,0,0,12.09,28.13Zm-3-1.45A1.15,1.15,0,0,0,11.27,26a1.15,1.15,0,1,0-2.19.68ZM24.71,8.84a1.14,1.14,0,1,0-1.56,1.66,1.13,1.13,0,0,0,1.6-.05A1.14,1.14,0,0,0,24.71,8.84ZM22.19,7.31a1,1,0,1,0-1.35,1.43,1,1,0,1,0,1.35-1.43Zm2.81,4a1,1,0,1,0,1.39,0A1,1,0,0,0,25,11.3ZM12,24a1.13,1.13,0,0,0,0-1.6,1.14,1.14,0,1,0-1.56,1.65A1.13,1.13,0,0,0,12,24Zm-1.89-2.41a1,1,0,1,0-1.4.05A1,1,0,0,0,10.06,21.63Zm2.8,4a1,1,0,1,0,0-1.39A1,1,0,0,0,12.86,25.63ZM19.75,8.9a.89.89,0,1,0,.6,1.1A.88.88,0,0,0,19.75,8.9Zm-2.2-.17a.77.77,0,0,0-1,.52.78.78,0,0,0,.52,1,.78.78,0,0,0,1-.52A.77.77,0,0,0,17.55,8.73Zm3.19,1.74a.78.78,0,0,0,.53,1A.77.77,0,0,0,21.7,10,.78.78,0,0,0,20.74,10.47Zm-4.34,13a.89.89,0,1,0-1.7-.5.89.89,0,0,0,.6,1.1A.88.88,0,0,0,16.4,23.44Zm-2.09-1a.77.77,0,1,0-1,.52A.76.76,0,0,0,14.31,22.47Zm3.2,1.74a.77.77,0,0,0,1-.52A.77.77,0,1,0,17,23.26.76.76,0,0,0,17.51,24.21ZM14.77,11.37a.68.68,0,0,0-.27.93.69.69,0,1,0,.27-.93Zm-1.22,1a.61.61,0,0,0-.25.83.6.6,0,0,0,.82.24.6.6,0,0,0,.25-.82A.61.61,0,0,0,13.55,12.4Zm2.53-.67a.61.61,0,0,0,.82.25.62.62,0,0,0,.24-.83.6.6,0,1,0-1.06.58Zm4.48,8.91a.69.69,0,1,0-.28.93A.69.69,0,0,0,20.56,20.64ZM19,21.2a.61.61,0,0,0-.82-.24A.6.6,0,0,0,18.74,22,.6.6,0,0,0,19,21.2Zm2.54-.68a.6.6,0,0,0,.24-.82.61.61,0,0,0-1.07.58A.62.62,0,0,0,21.52,20.52Zm13.53-4.05a1.77,1.77,0,1,0-1.76,1.76A1.76,1.76,0,0,0,35.05,16.47Zm-.68-4A1.62,1.62,0,1,0,32.67,14,1.61,1.61,0,0,0,34.37,12.47Zm-1.7,6.46a1.62,1.62,0,1,0,1.7,1.53A1.62,1.62,0,0,0,32.67,18.93Zm-30.9-.7A1.76,1.76,0,1,0,0,16.47,1.76,1.76,0,0,0,1.77,18.23ZM2.38,14a1.62,1.62,0,1,0-.17-3.24A1.62,1.62,0,0,0,2.38,14ZM.68,20.46a1.62,1.62,0,1,0,1.7-1.53A1.62,1.62,0,0,0,.68,20.46Zm29.41-9.41a1.38,1.38,0,1,0-.72,1.81A1.38,1.38,0,0,0,30.09,11.05ZM28.37,8.39a1.27,1.27,0,0,0-1.63-.74A1.26,1.26,0,0,0,27.62,10,1.27,1.27,0,0,0,28.37,8.39Zm.77,5.16a1.27,1.27,0,1,0,1.7.57A1.27,1.27,0,0,0,29.14,13.55ZM6.77,22.61A1.38,1.38,0,1,0,5,21.89,1.38,1.38,0,0,0,6.77,22.61Zm-.86-3.22a1.27,1.27,0,1,0-1.7-.58A1.27,1.27,0,0,0,5.91,19.39Zm.77,5.15a1.27,1.27,0,1,0,.75-1.62A1.27,1.27,0,0,0,6.68,24.54Z" style="fill:#f26f24"/><path d="M13.45,8.66a.57.57,0,0,1-.8,0,.57.57,0,1,1,.78-.82A.56.56,0,0,1,13.45,8.66ZM11,9.76a.42.42,0,0,0-.59,0,.41.41,0,1,0,.6.57A.42.42,0,0,0,11,9.76ZM25.56,20.07a.57.57,0,0,0,0,.8.56.56,0,0,0,.79,0,.56.56,0,0,0,0-.79A.58.58,0,0,0,25.56,20.07ZM24,22.58a.42.42,0,1,0,.61.57.4.4,0,0,0,0-.58A.41.41,0,0,0,24,22.58ZM9.49,12.86a.56.56,0,1,0-.81-.77.56.56,0,1,0,.81.77ZM21.63,25.07a.56.56,0,0,0,.79,0,.56.56,0,0,0-.81-.77A.56.56,0,0,0,21.63,25.07Zm-9.76-13a.46.46,0,0,0-.55.3.45.45,0,0,0,.3.54.43.43,0,0,0,.54-.29A.44.44,0,0,0,11.87,12.09Zm-1,2.09a.33.33,0,0,0-.19.63.33.33,0,0,0,.41-.22A.33.33,0,0,0,10.9,14.18Zm13.21,2a.43.43,0,0,0,.3.54.44.44,0,0,0,.54-.3.43.43,0,0,0-.29-.54A.44.44,0,0,0,24.11,16.15Zm-.17,2.2a.32.32,0,1,0,.62.18.32.32,0,0,0-.62-.18Zm-13-1.56a.43.43,0,0,0-.29-.54.45.45,0,0,0-.55.3.44.44,0,0,0,.3.54A.45.45,0,0,0,10.94,16.79Zm12.25,4.05a.43.43,0,0,0,.54-.29.44.44,0,0,0-.29-.55.46.46,0,0,0-.55.3A.44.44,0,0,0,23.19,20.84ZM12.31,17a.41.41,0,0,0-.16.55.4.4,0,0,0,.55.16.41.41,0,0,0-.39-.71Zm.57,1.56a.34.34,0,1,0,.45.14A.34.34,0,0,0,12.88,18.59ZM20.7,13a.4.4,0,1,0,.71-.38.4.4,0,1,0-.71.38Zm1,1.24a.34.34,0,0,0,.45.14.33.33,0,0,0,.14-.46.34.34,0,1,0-.59.32ZM14.36,20a.4.4,0,0,0-.71.38.4.4,0,0,0,.71-.38Zm8.38-4.06a.42.42,0,0,0,.17-.56.4.4,0,0,0-.55-.16.41.41,0,0,0,.38.72ZM18.24.71a.71.71,0,1,0-.71.71A.71.71,0,0,0,18.24.71Zm-.71,30.81a.71.71,0,1,0,.71.71A.71.71,0,0,0,17.53,31.52ZM21.41,31a.75.75,0,0,0-.54.93.77.77,0,0,0,.93.54A.76.76,0,0,0,21.41,31Zm-7.77,0a.76.76,0,0,0-.93.54.76.76,0,1,0,1.47.39A.75.75,0,0,0,13.64,31Zm8.7-29.52a.76.76,0,1,0-.93.54A.76.76,0,0,0,22.34,1.44Zm-8.16-.39a.76.76,0,1,0-.54.93A.75.75,0,0,0,14.18,1.05Zm-1,3.9a.56.56,0,0,0-.73-.29.56.56,0,0,0,.44,1A.56.56,0,0,0,13.16,5Zm9,22.31a.56.56,0,1,0,.73.29A.56.56,0,0,0,22.18,27.26Zm2.61-1.6a.59.59,0,0,0-.1.83.59.59,0,1,0,.93-.74A.59.59,0,0,0,24.79,25.66Zm-5.57,2.4a.59.59,0,0,0-.5.67.6.6,0,1,0,.5-.67ZM16.33,4.21a.59.59,0,1,0-1.17.17.59.59,0,0,0,1.17-.17Zm-6,2.24a.59.59,0,0,0-.83-.1.58.58,0,0,0-.1.83.59.59,0,0,0,.83.1A.58.58,0,0,0,10.36,6.45Z" style="fill:#f26f24"/><path d="M16.3,7.77a.69.69,0,1,1,0-1A.7.7,0,0,1,16.3,7.77Zm3-1.2a.87.87,0,0,0-1.24,0,.88.88,0,1,0,1.24,0Zm7,10.61a.69.69,0,0,0,1,.94.68.68,0,0,0,0-1A.69.69,0,0,0,26.28,17.18Zm-.22-3a.87.87,0,0,0,0,1.24.88.88,0,1,0,1.2-1.28A.88.88,0,0,0,26.06,14.13ZM8.77,15.76a.69.69,0,1,0-1-.95.69.69,0,0,0,1,.95Zm.22,3a.88.88,0,0,0,0-1.25.89.89,0,0,0-1.25,0,.88.88,0,0,0,0,1.24A.87.87,0,0,0,9,18.81Zm9.8,7.34a.69.69,0,0,0,1,0,.68.68,0,0,0,0-1,.69.69,0,0,0-.95,1Zm-3,.22A.88.88,0,0,0,17,25.09a.88.88,0,1,0-1.21,1.28Zm-2.34-16a.54.54,0,1,0,.37.67A.54.54,0,0,0,13.4,10.41Zm2-1.19a.68.68,0,1,0,.46.85A.68.68,0,0,0,15.37,9.22ZM23.61,14a.53.53,0,0,0,.36.67.54.54,0,0,0,.31-1A.54.54,0,0,0,23.61,14Zm-1.19-2a.68.68,0,1,0,1.31.38.67.67,0,0,0-.46-.84A.68.68,0,0,0,22.42,12Zm-11,7a.53.53,0,0,0-.37-.66.52.52,0,0,0-.66.36.53.53,0,0,0,.36.67A.54.54,0,0,0,11.45,19Zm1.19,2a.69.69,0,1,0-.85.46A.68.68,0,0,0,12.64,20.94Zm9,1.59a.54.54,0,1,0-.36-.67A.53.53,0,0,0,21.65,22.53Zm-2,1.19a.68.68,0,1,0-.47-.85A.68.68,0,0,0,19.69,23.72Zm-7.45-8.35a.48.48,0,0,0-.19.64.47.47,0,0,0,.83-.45A.47.47,0,0,0,12.24,15.37Zm.43-1.59a.54.54,0,1,0,.73.22A.54.54,0,0,0,12.67,13.78Zm6.65-1.69a.48.48,0,0,0,.64.19.47.47,0,0,0-.44-.84A.49.49,0,0,0,19.32,12.09Zm-1.59-.43a.54.54,0,0,0,.73.22.54.54,0,0,0-.51-1A.54.54,0,0,0,17.73,11.66Zm-2,9.18a.49.49,0,0,0-.64-.19.47.47,0,0,0,.44.84A.49.49,0,0,0,15.74,20.84Zm1.59.43a.54.54,0,0,0-1,.51.54.54,0,0,0,1-.51Zm5.49-3.71a.47.47,0,0,0-.45-.83.47.47,0,1,0,.45.83Zm-.44,1.59a.54.54,0,1,0-.72-.22A.54.54,0,0,0,22.38,19.15ZM26.36,3a1,1,0,0,0-.75-1.15,1,1,0,0,0-1.15.74,1,1,0,0,0,.75,1.16A1,1,0,0,0,26.36,3Zm3.48,2.49a1.18,1.18,0,1,0-1.35,1A1.18,1.18,0,0,0,29.84,5.51Zm2.8,3.23a1.47,1.47,0,0,0-2.93-.31,1.47,1.47,0,1,0,2.93.31ZM25.21,29.17a1,1,0,1,0,1.15.75A1,1,0,0,0,25.21,29.17Zm3.28-2.72a1.18,1.18,0,1,0,.37,2.33,1.18,1.18,0,1,0-.37-2.33ZM31,22.89a1.47,1.47,0,1,0,1.62,1.31A1.48,1.48,0,0,0,31,22.89ZM9.85,3.77A1,1,0,1,0,8.69,3,1,1,0,0,0,9.85,3.77ZM6.57,6.49A1.18,1.18,0,1,0,6.2,4.16a1.16,1.16,0,0,0-1,1.35A1.18,1.18,0,0,0,6.57,6.49ZM4,10.05A1.47,1.47,0,1,0,2.41,8.74,1.47,1.47,0,0,0,4,10.05ZM8.69,29.92a1,1,0,1,0,1.91.4,1,1,0,0,0-1.91-.4ZM5.22,27.43a1.18,1.18,0,1,0,2.33.37,1.18,1.18,0,0,0-2.33-.37ZM2.42,24.2a1.45,1.45,0,0,0,1.3,1.61A1.47,1.47,0,1,0,4,22.89,1.46,1.46,0,0,0,2.42,24.2ZM19.7,4.1a.76.76,0,0,0-1.49.29.77.77,0,0,0,.9.6A.75.75,0,0,0,19.7,4.1ZM23,4.8a.92.92,0,1,0-.66,1.12A.92.92,0,0,0,23,4.8Zm3,1.46a1.15,1.15,0,1,0-.75,1.43A1.15,1.15,0,0,0,26,6.26ZM27,23.2a.76.76,0,1,0,1.06.18A.77.77,0,0,0,27,23.2Zm1.51-3a.92.92,0,1,0,1,1.55.93.93,0,0,0,.28-1.27A.91.91,0,0,0,28.47,20.24Zm.72-3.34a1.15,1.15,0,1,0,1.56.44A1.15,1.15,0,0,0,29.19,16.9ZM8.09,9.74A.76.76,0,1,0,7,9.56.77.77,0,0,0,8.09,9.74Zm-1.51,3a.92.92,0,0,0,.29-1.27.91.91,0,0,0-1.27-.28.92.92,0,1,0,1,1.55ZM5.86,16A1.15,1.15,0,1,0,4.3,15.6,1.14,1.14,0,0,0,5.86,16Zm9.49,12.8a.76.76,0,1,0,1.49-.3.76.76,0,0,0-1.49.3Zm-3.26-.71a.92.92,0,1,0,1.79-.45A.94.94,0,0,0,12.75,27,.93.93,0,0,0,12.09,28.13Zm-3-1.45A1.15,1.15,0,0,0,11.27,26a1.15,1.15,0,1,0-2.19.68Z" style="fill:#f26f24"/><path d="M24.75,10.45a1.13,1.13,0,0,1-1.6.05,1.14,1.14,0,1,1,1.6-.05ZM22.19,7.31a1,1,0,1,0-1.35,1.43,1,1,0,1,0,1.35-1.43Zm2.81,4a1,1,0,1,0,1.39,0A1,1,0,0,0,25,11.3ZM12,24a1.13,1.13,0,0,0,0-1.6,1.14,1.14,0,1,0-1.56,1.65A1.13,1.13,0,0,0,12,24Zm-1.89-2.41a1,1,0,1,0-1.4.05A1,1,0,0,0,10.06,21.63Zm2.8,4a1,1,0,1,0,0-1.39A1,1,0,0,0,12.86,25.63ZM19.75,8.9a.89.89,0,1,0,.6,1.1A.88.88,0,0,0,19.75,8.9Zm-2.2-.17a.77.77,0,0,0-1,.52.78.78,0,0,0,.52,1,.78.78,0,0,0,1-.52A.77.77,0,0,0,17.55,8.73Zm3.19,1.74a.78.78,0,0,0,.53,1A.77.77,0,0,0,21.7,10,.78.78,0,0,0,20.74,10.47Zm-4.34,13a.89.89,0,1,0-1.7-.5.89.89,0,0,0,.6,1.1A.88.88,0,0,0,16.4,23.44Zm-2.09-1a.77.77,0,1,0-1,.52A.76.76,0,0,0,14.31,22.47Zm3.2,1.74a.77.77,0,0,0,1-.52A.77.77,0,1,0,17,23.26.76.76,0,0,0,17.51,24.21ZM14.77,11.37a.68.68,0,0,0-.27.93.69.69,0,1,0,.27-.93Zm-1.22,1a.61.61,0,0,0-.25.83.6.6,0,0,0,.82.24.6.6,0,0,0,.25-.82A.61.61,0,0,0,13.55,12.4Zm2.53-.67a.61.61,0,0,0,.82.25.62.62,0,0,0,.24-.83.6.6,0,1,0-1.06.58Zm4.48,8.91a.69.69,0,1,0-.28.93A.69.69,0,0,0,20.56,20.64ZM19,21.2a.61.61,0,0,0-.82-.24A.6.6,0,0,0,18.74,22,.6.6,0,0,0,19,21.2Zm2.54-.68a.6.6,0,0,0,.24-.82.61.61,0,0,0-1.07.58A.62.62,0,0,0,21.52,20.52Zm13.53-4.05a1.77,1.77,0,1,0-1.76,1.76A1.76,1.76,0,0,0,35.05,16.47Zm-.68-4A1.62,1.62,0,1,0,32.67,14,1.61,1.61,0,0,0,34.37,12.47Zm-1.7,6.46a1.62,1.62,0,1,0,1.7,1.53A1.62,1.62,0,0,0,32.67,18.93Zm-30.9-.7A1.76,1.76,0,1,0,0,16.47,1.76,1.76,0,0,0,1.77,18.23ZM2.38,14a1.62,1.62,0,1,0-.17-3.24A1.62,1.62,0,0,0,2.38,14ZM.68,20.46a1.62,1.62,0,1,0,1.7-1.53A1.62,1.62,0,0,0,.68,20.46Zm29.41-9.41a1.38,1.38,0,1,0-.72,1.81A1.38,1.38,0,0,0,30.09,11.05ZM28.37,8.39a1.27,1.27,0,0,0-1.63-.74A1.26,1.26,0,0,0,27.62,10,1.27,1.27,0,0,0,28.37,8.39Zm.77,5.16a1.27,1.27,0,1,0,1.7.57A1.27,1.27,0,0,0,29.14,13.55ZM6.77,22.61A1.38,1.38,0,1,0,5,21.89,1.38,1.38,0,0,0,6.77,22.61Zm-.86-3.22a1.27,1.27,0,1,0-1.7-.58A1.27,1.27,0,0,0,5.91,19.39Zm.77,5.15a1.27,1.27,0,1,0,.75-1.62A1.27,1.27,0,0,0,6.68,24.54Z"/></svg>
